<?xml version="1.0" standalone="no"?><!DOCTYPE svg PUBLIC "-//W3C//DTD SVG 1.1//EN" "http://www.w3.org/Graphics/SVG/1.1/DTD/svg11.dtd"><svg t="1607000525048" class="icon" viewBox="0 0 1024 1024" version="1.1" xmlns="http://www.w3.org/2000/svg" p-id="3489" xmlns:xlink="http://www.w3.org/1999/xlink" width="200" height="200"><defs><style type="text/css"></style></defs><path d="M279.808 316.7744L206.2848 394.2912S91.8528 366.9504 69.888 394.24s69.5808 82.3296 69.5808 82.3296-22.8864 31.232-6.7584 50.688c16.128 19.456 46.592 14.4384 137.984-42.6496s324.864-223.744 381.696-297.7792c29.0816-36.0448 38.4512-57.8048 35.4816-85.6064-2.9696-27.8016-30.5664-44.8512-56.7808-30.5664-16.2816 20.736-78.5408 89.4464-78.5408 89.4464l-10.24-32.768 40.0896-46.2848s-73.0112-15.616-170.4448 112.384c-89.088-0.9728-272.2304-13.4144-298.8544 34.6112s15.2576 50.3296 24.8832 53.0432c9.728 2.816 141.824 35.6864 141.824 35.6864z" fill="#000100" p-id="3490"></path><path d="M155.2384 545.2288c-12.2368 0-21.248-4.5056-28.3648-13.056-14.6944-17.664-4.5568-41.5232 2.048-53.1456-18.2784-11.7248-64.8704-43.8784-69.632-70.4512-1.28-7.1168 0.3584-13.7216 4.6592-19.0976 22.3744-27.8528 112.64-9.8304 139.8272-3.6352l61.3888-64.7168c-33.536-8.3456-121.1904-30.2592-129.1264-32.512-0.8704-0.256-2.048-0.4608-3.4816-0.768-9.1648-1.8944-26.3168-5.4272-33.0752-20.1728-5.1712-11.2128-2.8672-25.344 7.0656-43.2128 23.2448-41.984 138.0864-42.5984 263.8848-39.424 13.7216 0.3584 26.5216 0.6656 37.9392 0.8192 98.0992-127.0784 172.6464-112.8448 175.7696-112.1792 2.6624 0.5632 4.8128 2.5088 5.6832 5.0688 0.8704 2.56 0.3072 5.4272-1.4848 7.4752l-37.2736 43.008 4.9664 15.8208c17.8176-19.8144 56.9856-63.488 69.1712-79.0528 0.6656-0.8192 1.4336-1.4848 2.3552-1.9968 14.1824-7.7312 30.0032-8.0896 43.3664-1.0752 13.7216 7.2192 22.9888 21.248 24.7296 37.5808 3.1744 29.8496-6.1952 52.8896-37.1712 91.2384-58.2656 75.9296-295.3216 244.3264-383.5904 299.4688-59.3408 36.9664-95.744 54.016-119.6544 54.016z m-40.4992-155.392c-18.7392 0-33.536 2.56-38.8096 9.1648-1.536 1.9456-1.9968 4.0448-1.536 6.8096 3.2768 18.432 44.1344 49.1008 69.0688 64.1536 1.8432 1.1264 3.1232 2.9696 3.584 5.0688s-0.0512 4.3008-1.3312 6.0416c-0.2048 0.256-18.944 26.9312-7.0656 41.2672 11.7248 14.1312 37.9904 11.9808 128-44.2368 87.6032-54.6816 322.4064-221.3376 379.648-295.936 28.1088-34.816 36.6592-54.9888 33.9456-80.128-1.1776-11.2128-7.3728-20.7872-16.5888-25.6-8.4992-4.4544-18.2272-4.352-27.5456 0.3072-17.6128 22.0672-75.3664 85.8112-77.824 88.576-1.8432 2.048-4.6592 2.9184-7.3216 2.3552-2.7136-0.6144-4.864-2.56-5.6832-5.2224l-10.24-32.768c-0.8192-2.56-0.2048-5.3248 1.536-7.3216l29.0304-33.4848c-25.4464 3.1744-80.384 21.1968-147.456 109.2608-1.4848 1.9456-3.84 3.1232-6.1952 3.0208-12.3904-0.1536-26.624-0.512-41.984-0.8704-85.8112-2.1504-229.376-5.7344-250.0096 31.5392-7.168 12.9024-9.4208 23.0912-6.5536 29.3376 3.5328 7.68 15.2576 10.0864 22.2208 11.52 1.8432 0.3584 3.4304 0.7168 4.5568 1.024 9.3696 2.6624 140.1344 35.2256 141.4656 35.584 2.6624 0.6656 4.7616 2.6624 5.5296 5.3248 0.768 2.6112 0.0512 5.4784-1.792 7.424L211.8656 399.5648c-1.8944 1.9968-4.7104 2.816-7.3728 2.2016-26.9824-6.4512-62.5152-11.9296-89.7536-11.9296z" fill="#FFF100" p-id="3491"></path><path d="M625.0496 274.0224c-73.4208 59.648-253.4912 202.6496-409.4464 301.0048-0.9728 10.4448-1.536 21.0432-1.536 31.744 0 187.8528 152.32 340.1728 340.1728 340.1728s340.1728-152.32 340.1728-340.1728c0-163.584-115.456-300.1344-269.3632-332.7488z" fill="#000100" p-id="3492"></path><path d="M554.2912 954.624c-191.7952 0-347.8528-156.0576-347.8528-347.8528 0-10.496 0.512-21.0944 1.5872-32.4608 0.2048-2.3552 1.536-4.5056 3.5328-5.7856 156.3648-98.6624 337.8688-242.9952 408.6784-300.4416 1.792-1.4848 4.1472-2.048 6.4512-1.536 159.6416 33.792 275.456 176.896 275.456 340.2752-0.0512 191.744-156.0576 347.8016-347.8528 347.8016z m-331.3664-375.1424c-0.768 9.472-1.1776 18.432-1.1776 27.2896 0 183.3472 149.1456 332.4928 332.4928 332.4928s332.4928-149.1456 332.4928-332.4928c0-154.9312-109.0048-290.816-259.7376-324.4544-72.3968 58.7264-249.8048 199.4752-404.0704 297.1648z" fill="#FFF100" p-id="3493"></path><path d="M752.5888 397.9264c7.3216-3.7888 24.5248-20.1216 30.976-42.2912-43.8784-40.0896-98.2528-68.864-158.5152-81.6128-34.048 27.648-90.9824 73.216-157.8496 123.904 0 0-10.6496 45.5168 18.0224 46.7968 31.8976 1.4336 61.5424 24.5248 34.4576 48.9984-27.0848 24.4736-67.584 63.1296-52.48 96.6144 15.104 33.4848 71.3728 43.8272 87.04 36.096s72.704-7.8848 47.5648 48.1792 17.408 73.9328 30.464 69.12c13.056-4.8128 114.5344-27.0336 86.4768-91.8016-28.0064-64.768-19.3024-76.3392-8.704-80.6912 10.6496-4.352 75.3664-56.5248 46.3872-93.2864s-17.3568-73.0112-3.84-80.0256z" fill="#000100" p-id="3494"></path><path d="M627.456 752.0768c-9.0112 0-20.48-4.3008-29.0304-13.4656-8.4992-9.1136-20.2752-29.9008-3.584-67.2256 5.0176-11.1616 9.216-26.1632 0.8704-34.2016-9.1136-8.8064-30.1056-7.8336-37.9904-3.8912-10.8544 5.3248-32.5632 3.9936-52.8896-3.328-21.6064-7.7312-37.4272-20.6848-44.544-36.5056-18.0736-40.0384 30.8224-84.224 54.3232-105.472 6.8096-6.1952 9.3184-11.9808 7.424-17.2544-3.4304-9.5232-19.712-17.5616-37.12-18.3808-8.448-0.3584-15.4112-3.8912-20.1216-10.0864-11.7248-15.5136-5.7344-43.0592-5.0176-46.1312 0.4096-1.7408 1.4336-3.2768 2.816-4.352 65.9456-50.0224 122.112-94.9248 157.6448-123.7504 1.792-1.4848 4.1472-2.048 6.4512-1.536 60.2112 12.7488 116.2752 41.6256 162.1504 83.456 2.1504 1.9968 3.0208 5.0176 2.2016 7.8336-6.8096 23.2448-24.832 41.7792-34.816 46.9504-3.1232 1.5872-7.0656 7.1168-8.96 15.8208-1.6896 7.8336-3.584 28.6208 15.3088 52.5824 8.5504 10.8544 11.1104 24.1152 7.3728 38.3488-8.704 33.0752-48.128 63.232-56.8832 66.7648-2.4576 1.024-3.584 2.048-4.352 3.9424-2.56 6.2976-1.6896 22.9888 17.2032 66.6112 7.0656 16.3328 7.3216 31.6928 0.8192 45.7216-15.5648 33.4336-64.7168 48.1792-85.76 54.4768-2.6624 0.8192-4.7104 1.4336-5.9392 1.8432-2.2528 0.8192-4.8128 1.2288-7.5776 1.2288z m-53.6576-136.9088c11.4688 0 24.064 2.8672 32.512 11.008 8.1408 7.8848 15.2064 23.1936 2.5088 51.5584-9.6768 21.6064-9.4208 39.5264 0.768 50.432 7.0656 7.5776 16.896 9.472 19.968 8.3456 1.4336-0.512 3.7888-1.2288 6.8608-2.1504 17.408-5.2224 63.5904-19.0464 76.2368-46.2336 4.6592-9.984 4.3008-20.8384-0.9728-33.1264-22.528-52.0192-21.0944-69.2736-17.3568-78.4896 2.3552-5.7344 6.5024-9.7792 12.8-12.3392 5.9904-2.4576 40.7552-29.5424 47.8208-56.4736 2.56-9.6768 1.0752-17.8176-4.5568-24.9344-16.1792-20.48-22.8352-44.288-18.2784-65.3312 2.6624-12.3392 8.96-22.1184 16.896-26.2144 5.1712-2.6624 18.9952-15.5648 25.6512-33.1264-42.1888-37.4272-93.0816-63.488-147.6608-75.6736-35.2768 28.6208-89.4976 71.8336-152.8832 119.9616-1.7408 9.6256-2.2528 24.1152 2.8672 30.7712 1.2288 1.5872 3.4304 3.7376 8.5504 3.9936 24.32 1.0752 45.2096 12.8 50.8928 28.5184 2.3552 6.6048 3.9936 19.7632-11.5712 33.8432-20.7872 18.7904-64.1024 57.9072-50.6368 87.7568 7.2704 16.128 25.4976 24.6784 35.7376 28.3648 18.5344 6.656 35.6864 6.6048 40.9088 3.9936 5.0176-2.56 13.6192-4.4544 22.9376-4.4544z" fill="#FFF100" p-id="3495"></path><path d="M599.9104 834.9696c-7.7312-37.2736-76.3392-26.5216-93.7472-11.0592s-68.608 20.2752-68.608-23.1936-36.7104-44.4416-54.1184-42.3424c-17.408 2.0992-31.8976 10.4448-63.7952-58.1632-20.2752-43.6224-66.7136-34.0992-97.8432-21.4016 29.7984 138.1888 143.4624 245.0944 285.1328 264.8064 13.2608-25.7024 57.0368-26.368 73.6256-34.6624 21.2992-10.6496 27.0848-36.7616 19.3536-73.984z" fill="#000100" p-id="3496"></path><path d="M506.9312 951.296c-0.3584 0-0.7168 0-1.0752-0.0512-143.7696-20.0192-260.9664-128.8704-291.584-270.7968-0.768-3.6352 1.1776-7.3216 4.608-8.7552 52.0192-21.248 90.2656-12.2368 107.7248 25.2928 27.0336 58.112 38.4512 56.3712 51.712 54.3744l4.1984-0.6144c11.4688-1.3824 32.9728-1.792 47.7696 11.3152 9.9328 8.7552 14.9504 21.76 14.9504 38.656 0 11.8784 4.4544 19.8656 13.2096 23.808 13.2608 5.9392 33.792 1.4848 42.5984-6.3488 14.3872-12.8 53.9648-21.1456 79.6672-12.6464 14.6944 4.864 23.9104 14.4896 26.7264 27.904 11.008 52.9408-6.656 74.0352-23.3984 82.432-5.8368 2.9184-13.6704 4.8128-22.7328 6.9632-17.7664 4.2496-39.8848 9.5744-47.5136 24.32-1.3824 2.56-3.9936 4.1472-6.8608 4.1472z m-276.1728-267.7248c30.976 130.9184 139.264 231.1168 272.2816 251.6992 12.0832-17.2032 35.5328-22.8352 54.6304-27.392 7.8336-1.8944 15.2064-3.6352 19.456-5.7856 17.3568-8.6528 22.4768-30.72 15.2576-65.536-1.6384-7.936-7.0656-13.312-16.4864-16.4352-21.248-7.0656-54.8352 0.8704-64.6144 9.5744-12.8 11.3664-39.5776 17.664-59.0848 8.9088-14.3872-6.4512-22.272-19.8656-22.272-37.8368 0-12.288-3.2768-21.4016-9.7792-27.136-10.2912-9.1136-26.7776-8.6528-35.7376-7.5776-1.28 0.1536-2.5088 0.3584-3.7376 0.512-21.0944 3.1744-38.3488 0.5632-67.9424-63.0784-16.1792-34.7648-52.3264-30.8224-81.9712-19.9168z" fill="#FFF100" p-id="3497"></path><path d="M171.776 587.776l-81.152 33.4848s52.1728 284.7744 297.0112 333.056c-19.3536-12.8512-224.2048-103.68-215.8592-366.5408z" fill="#000100" p-id="3498"></path><path d="M387.6352 962.048c-0.512 0-0.9728-0.0512-1.4848-0.1536-102.3488-20.224-187.2384-85.3504-245.504-188.416-43.776-77.4656-57.0368-147.8656-57.5488-150.8352-0.6656-3.584 1.28-7.1168 4.608-8.4992l81.152-33.4848c2.4064-1.024 5.1712-0.7168 7.3216 0.768 2.1504 1.4848 3.3792 3.9424 3.328 6.5536-3.4304 108.032 29.1328 257.3312 203.7248 354.9184 3.9936 2.2016 6.8608 3.84 8.6528 5.0176 3.072 2.048 4.2496 5.9392 2.816 9.3184-1.1776 2.9696-4.0448 4.8128-7.0656 4.8128z m-288.1536-336.128c8.5504 37.4272 61.7984 237.8752 235.8784 305.3568-140.5952-96.8192-172.1856-229.888-171.4176-331.9296l-64.4608 26.5728z" fill="#FFF100" p-id="3499"></path><path d="M662.7328 235.3664s336.2816 85.0432 268.6464 471.6032c32.8704-57.9584 88.8832-378.8288-218.4192-539.2384-15.4624 28.9792-50.2272 67.6352-50.2272 67.6352z" fill="#000100" p-id="3500"></path><path d="M931.3792 714.6496c-0.8704 0-1.7408-0.1536-2.6112-0.4608-3.5328-1.28-5.632-4.864-4.9664-8.5504 27.5456-157.2864-8.192-282.9312-106.1376-373.3504-73.3184-67.6864-156.0064-89.2416-156.8256-89.4976-2.6112-0.6656-4.6592-2.6624-5.4784-5.2224-0.768-2.56-0.1536-5.376 1.6384-7.3728 0.3584-0.3584 34.3552-38.2976 49.2032-66.1504a7.68 7.68 0 0 1 10.3424-3.1744c118.1696 61.696 195.584 152.2688 230.0928 269.1584 36.4032 123.392 12.3904 243.6608-8.5504 280.6784-1.4336 2.5088-3.9936 3.9424-6.7072 3.9424zM676.352 231.424c26.0608 8.4992 90.9312 33.6384 151.2448 89.1392 58.1632 53.504 120.4224 144.5376 120.32 289.024 4.9664-48.1792 3.2768-109.7216-16.0256-175.1552-32.6656-110.592-105.2672-196.864-215.9104-256.4096-11.7248 19.6096-29.44 41.4208-39.6288 53.4016z" fill="#FFF100" p-id="3501"></path></svg>